<?xml version="1.0" encoding="UTF-8"?>
<svg id="Layer_2" data-name="Layer 2" xmlns="http://www.w3.org/2000/svg" viewBox="0 0 1672.46 891.95">
  <defs>
    <style>
      .cls-1 {
        fill: #959fa7;
      }

      .cls-2 {
        fill: #e7c91e;
      }

      .cls-3 {
        fill: #fff;
      }
    </style>
  </defs>
  <g id="Layer_2-2" data-name="Layer 2">
    <g>
      <path class="cls-2" d="M1036.43,75.98s-4.23,61.9,58.68,62.72c62.91.83,79.65-34.77,70.45-57.94-9.2-23.18-129.13-4.78-129.13-4.78Z"/>
      <rect class="cls-1" y="256.24" width="67.88" height="389.87"/>
      <rect class="cls-1" x="205.28" y="256.24" width="67.88" height="389.87"/>
      <rect class="cls-1" x="98.23" y="324.25" width="67.88" height="231.77" transform="translate(572.3 307.98) rotate(90)"/>
      <polygon class="cls-2" points="1361.64 325.91 1361.64 258.04 1165.56 258.04 1165.56 268.43 1165.56 325.91 1165.56 400.41 1165.56 468.28 1165.56 646.57 1233.43 646.57 1233.43 468.28 1361.64 468.28 1361.64 400.41 1233.43 400.41 1233.43 325.91 1361.64 325.91"/>
      <polygon class="cls-1" points="609.95 255.42 504.82 546.8 399.69 255.42 327.83 256.24 468.66 646.57 468.82 646.57 540.82 646.57 540.98 646.57 681.81 256.24 609.95 255.42"/>
      <path class="cls-2" d="M899.21,250.72c-111.75,0-202.34,90.59-202.34,202.34s90.59,202.34,202.34,202.34,202.34-90.59,202.34-202.34-90.59-202.34-202.34-202.34ZM899.21,590.28c-75.79,0-137.22-61.44-137.22-137.22s61.44-137.22,137.22-137.22,137.22,61.44,137.22,137.22-61.44,137.22-137.22,137.22Z"/>
      <path class="cls-1" d="M1364.95,646.57h205.28s-23.18-73.58-89.4-68.06-115.88,68.06-115.88,68.06Z"/>
      <polygon class="cls-1" points="1489.11 583.48 1648.59 274.45 1640.13 270.96 1482.31 581.82 1489.11 583.48"/>
      <circle class="cls-1" cx="1651.9" cy="257.48" r="20.56"/>
      <polygon class="cls-1" points="1243.92 75.98 1638.38 244.93 1636.18 251.28 1243.92 96.21 1243.92 75.98"/>
      <path class="cls-1" d="M972.6,62.55s99.88,50.22,262.12,38.08c0,0-2.21-76.15-91.6-97.12-89.4-20.97-170.52,59.05-170.52,59.05Z"/>
      <rect class="cls-1" y="673.43" width="1595.07" height="75.32"/>
      <rect class="cls-1" y="766.78" width="1595.07" height="125.17"/>
      <g>
        <path class="cls-3" d="M68.71,809.64c2.95,1.84,5.26,4.53,6.91,8.05,1.65,3.52,2.48,7.7,2.48,12.53v31.63h-17.72v-29.35c0-3.05-.89-5.45-2.67-7.19-1.78-1.75-4.13-2.62-7.05-2.62s-5.46.91-7.43,2.72c-1.97,1.81-2.95,4.18-2.95,7.1v29.35h-17.72v-73.94h17.72v27.44c5.65-5.65,11.72-8.48,18.2-8.48,3.87,0,7.29.92,10.24,2.76Z"/>
        <path class="cls-3" d="M145.18,807.83v54.02h-17.72v-7.43c-5.78,5.65-11.85,8.48-18.2,8.48-3.88,0-7.29-.92-10.24-2.76s-5.26-4.53-6.91-8.05c-1.65-3.52-2.48-7.73-2.48-12.62v-31.63h17.72v29.35c0,3.05.89,5.45,2.67,7.19,1.78,1.75,4.13,2.62,7.05,2.62s5.46-.9,7.43-2.72c1.97-1.81,2.95-4.18,2.95-7.1v-29.35h17.72Z"/>
        <path class="cls-3" d="M213.11,787.92v73.94h-17.72v-6.29c-3.94,4.89-9.56,7.34-16.87,7.34-4.64,0-8.75-1.17-12.34-3.52-3.59-2.35-6.37-5.67-8.34-9.96-1.97-4.29-2.95-9.2-2.95-14.72s.98-10.4,2.95-14.63c1.97-4.22,4.75-7.49,8.34-9.81,3.59-2.32,7.7-3.48,12.34-3.48,7.3,0,12.93,2.42,16.87,7.24v-26.11h17.72ZM192.67,843.66c2-2.22,3-5.11,3-8.67s-.99-6.65-2.95-8.91c-1.97-2.25-4.76-3.38-8.38-3.38s-6.37,1.13-8.43,3.38c-2.07,2.26-3.1,5.23-3.1,8.91,0,3.49,1.05,6.37,3.14,8.62,2.1,2.26,4.89,3.38,8.38,3.38s6.34-1.11,8.34-3.33Z"/>
        <path class="cls-3" d="M233.93,861.47c-3.91-1.14-7.73-3.08-11.48-5.81l6.19-11.05c2.41,1.59,5.4,2.91,8.96,3.95,3.56,1.05,6.73,1.57,9.53,1.57,2.1,0,3.7-.24,4.81-.71,1.11-.48,1.67-1.32,1.67-2.52,0-1.33-.76-2.3-2.29-2.91-1.52-.6-4.03-1.25-7.53-1.95-4.19-.82-7.66-1.72-10.39-2.67-2.73-.95-5.11-2.59-7.15-4.91-2.03-2.32-3.05-5.54-3.05-9.67,0-5.53,2.1-9.89,6.29-13.1,4.19-3.21,9.59-4.81,16.2-4.81,4.32,0,8.27.48,11.86,1.43,3.59.95,7,2.48,10.24,4.57l-5.34,11.43c-2.48-1.4-5.16-2.48-8.05-3.24-2.89-.76-5.57-1.14-8.05-1.14-1.65,0-3.08.25-4.29.76-1.21.51-1.81,1.37-1.81,2.57,0,1.27.73,2.18,2.19,2.72,1.46.54,3.78,1.03,6.96,1.48,4.25.7,7.78,1.52,10.58,2.48,2.79.95,5.24,2.64,7.34,5.05,2.1,2.41,3.14,5.78,3.14,10.1,0,5.65-2.02,10.09-6.05,13.29-4.03,3.21-9.54,4.81-16.53,4.81-5.4,0-10.05-.57-13.96-1.72Z"/>
        <path class="cls-3" d="M291.58,859.14c-4.48-2.51-7.99-5.92-10.53-10.24-2.54-4.32-3.81-9.02-3.81-14.1s1.27-9.77,3.81-14.05c2.54-4.29,6.05-7.69,10.53-10.2,4.48-2.51,9.51-3.76,15.1-3.76s10.53,1.25,15.01,3.76c4.48,2.51,7.99,5.91,10.53,10.2,2.54,4.29,3.81,8.97,3.81,14.05s-1.27,9.78-3.81,14.1c-2.54,4.32-6.05,7.73-10.53,10.24-4.48,2.51-9.48,3.76-15.01,3.76s-10.62-1.25-15.1-3.76ZM298.2,826.03c-2.1,2.29-3.14,5.21-3.14,8.77s1.05,6.5,3.14,8.81c2.1,2.32,4.92,3.48,8.48,3.48s6.38-1.16,8.48-3.48c2.1-2.32,3.14-5.26,3.14-8.81s-1.05-6.48-3.14-8.77c-2.1-2.29-4.92-3.43-8.48-3.43s-6.38,1.14-8.48,3.43Z"/>
        <path class="cls-3" d="M391.91,809.55c2.95,1.84,5.26,4.53,6.91,8.05,1.65,3.53,2.48,7.73,2.48,12.63v31.63h-17.72v-29.35c0-3.05-.89-5.45-2.67-7.19-1.78-1.75-4.13-2.62-7.05-2.62s-5.46.91-7.43,2.72c-1.97,1.81-2.95,4.18-2.95,7.1v29.35h-17.72v-54.02h17.72v7.43c5.78-5.65,11.85-8.48,18.2-8.48,3.87,0,7.29.92,10.24,2.76Z"/>
        <path class="cls-3" d="M454.46,807.83l12.2,32.59,12.29-32.59h19.44l-22.58,54.02h-18.29l-22.49-54.02h19.44Z"/>
        <path class="cls-3" d="M536.11,856.52c-1.33,1.84-3.33,3.35-6,4.53-2.67,1.17-5.81,1.76-9.43,1.76-6.16,0-11.1-1.44-14.82-4.34-3.72-2.89-5.57-7-5.57-12.34,0-3.75,1.08-6.91,3.24-9.48,2.16-2.57,4.89-4.46,8.19-5.67,3.3-1.21,6.67-1.81,10.1-1.81,4.95,0,9.53.67,13.72,2,.06-3.43-.84-5.91-2.72-7.43-1.87-1.52-4.46-2.29-7.77-2.29-3.75,0-7.38.45-10.91,1.33-3.53.89-6.02,1.72-7.48,2.48l-4-12.77c8.26-3.81,16.64-5.72,25.15-5.72,9.02,0,15.51,2.1,19.49,6.29,3.97,4.19,5.96,10.51,5.96,18.96v29.82h-17.06l-.1-5.34ZM532.92,848.71c1.75-1.27,2.62-3.11,2.62-5.53v-2.57c-2.67-1.08-5.49-1.62-8.48-1.62-2.67,0-4.86.51-6.57,1.52-1.72,1.02-2.57,2.38-2.57,4.1,0,1.84.78,3.3,2.33,4.38,1.56,1.08,3.51,1.62,5.86,1.62,2.79,0,5.06-.63,6.81-1.91Z"/>
        <path class="cls-3" d="M565.17,787.92h17.72v73.94h-17.72v-73.94Z"/>
        <path class="cls-3" d="M595.38,787.92h17.72v73.94h-17.72v-73.94Z"/>
        <path class="cls-3" d="M637.16,859.38c-4.67-2.35-8.23-5.64-10.67-9.86-2.45-4.22-3.67-9.1-3.67-14.63,0-5.91,1.36-10.99,4.1-15.25,2.73-4.26,6.27-7.46,10.62-9.62,4.35-2.16,8.91-3.24,13.67-3.24,5.59,0,10.5,1.16,14.72,3.48,4.22,2.32,7.51,5.7,9.86,10.15,2.35,4.45,3.52,9.72,3.52,15.82,0,1.52-.09,3.02-.29,4.48h-38.11c.7,2.29,2.29,4.19,4.76,5.72,2.48,1.52,5.62,2.29,9.43,2.29,2.48,0,4.78-.43,6.91-1.29,2.13-.86,3.89-1.89,5.29-3.1l9.53,8.48c-2.22,2.8-5.34,5.18-9.34,7.15-4,1.97-8.61,2.95-13.82,2.95-6.35,0-11.86-1.17-16.53-3.52ZM643.74,823.98c-1.87,1.81-2.88,4.02-3,6.62h20.49c-.19-2.67-1.14-4.89-2.86-6.67-1.72-1.78-4.13-2.67-7.24-2.67s-5.51.91-7.38,2.72Z"/>
        <path class="cls-3" d="M746.12,807.83l-24.3,58.03c-2.42,5.84-5.34,10.11-8.77,12.82-3.43,2.7-8.07,4.05-13.91,4.05-3.37,0-6.38-.35-9.05-1.05-2.67-.7-5.72-1.87-9.15-3.52l5.62-14.01c1.97,1.02,3.76,1.78,5.38,2.29,1.62.51,3.45.76,5.48.76s3.7-.49,5-1.48c1.3-.98,2.37-2.49,3.19-4.53l.1-.29-23.63-53.07h20.01l12.2,31.54,12.58-31.54h19.25Z"/>
        <path class="cls-3" d="M792.18,859.14c-4.48-2.51-7.99-5.92-10.53-10.24-2.54-4.32-3.81-9.02-3.81-14.1s1.27-9.77,3.81-14.05c2.54-4.29,6.05-7.69,10.53-10.2,4.48-2.51,9.51-3.76,15.1-3.76s10.53,1.25,15.01,3.76c4.48,2.51,7.99,5.91,10.53,10.2,2.54,4.29,3.81,8.97,3.81,14.05s-1.27,9.78-3.81,14.1c-2.54,4.32-6.05,7.73-10.53,10.24-4.48,2.51-9.48,3.76-15.01,3.76s-10.62-1.25-15.1-3.76ZM798.81,826.03c-2.1,2.29-3.14,5.21-3.14,8.77s1.05,6.5,3.14,8.81c2.1,2.32,4.92,3.48,8.48,3.48s6.38-1.16,8.48-3.48c2.1-2.32,3.14-5.26,3.14-8.81s-1.05-6.48-3.14-8.77c-2.1-2.29-4.92-3.43-8.48-3.43s-6.38,1.14-8.48,3.43Z"/>
        <path class="cls-3" d="M866.55,861.86h-17.72v-37.26h-5.91v-15.82h6.1v-3.91c0-5.08,1.48-9.29,4.43-12.63,2.95-3.33,7.48-5,13.58-5,3.3,0,6.38.56,9.24,1.67,2.86,1.11,5.27,2.46,7.24,4.05l-6.86,10.29c-.57-.57-1.27-1.06-2.1-1.48-.83-.41-1.72-.62-2.67-.62-1.65,0-2.95.46-3.91,1.38-.95.92-1.43,2.3-1.43,4.15v2.1h11.81v15.82h-11.81v37.26Z"/>
        <path class="cls-3" d="M908.86,861.86h-17.72v-37.26h-5.91v-15.82h6.1v-3.91c0-5.08,1.48-9.29,4.43-12.63,2.95-3.33,7.48-5,13.58-5,3.3,0,6.38.56,9.24,1.67,2.86,1.11,5.27,2.46,7.24,4.05l-6.86,10.29c-.57-.57-1.27-1.06-2.1-1.48-.83-.41-1.72-.62-2.67-.62-1.65,0-2.95.46-3.91,1.38-.95.92-1.43,2.3-1.43,4.15v2.1h11.81v15.82h-11.81v37.26Z"/>
        <path class="cls-3" d="M947.21,800.54c-1.87,1.81-4.15,2.72-6.81,2.72s-5.08-.91-7.05-2.72c-1.97-1.81-2.95-4.02-2.95-6.62s.98-4.64,2.95-6.48c1.97-1.84,4.32-2.76,7.05-2.76s4.86.91,6.76,2.72c1.91,1.81,2.86,3.99,2.86,6.53s-.94,4.81-2.81,6.62ZM931.44,807.83h17.72v54.02h-17.72v-54.02Z"/>
        <path class="cls-3" d="M963.21,820.88c2.63-4.32,6.19-7.75,10.67-10.29,4.48-2.54,9.35-3.81,14.63-3.81,6.1,0,11.42,1.49,15.96,4.48,4.54,2.99,7.8,6.93,9.77,11.82l-15.15,6.1c-1.14-2.03-2.54-3.62-4.19-4.76-1.65-1.14-3.75-1.72-6.29-1.72-3.37,0-6.15,1.18-8.34,3.53-2.19,2.35-3.29,5.27-3.29,8.77s1.08,6.45,3.24,8.67c2.16,2.22,4.95,3.33,8.38,3.33,2.67,0,4.86-.54,6.57-1.62,1.72-1.08,3.14-2.6,4.29-4.57l15.05,6.1c-1.97,5.08-5.19,9.02-9.67,11.81-4.48,2.8-9.89,4.19-16.25,4.19-5.4,0-10.34-1.19-14.82-3.57-4.48-2.38-8.02-5.7-10.62-9.96-2.61-4.26-3.91-9.05-3.91-14.39s1.32-9.78,3.95-14.1Z"/>
        <path class="cls-3" d="M1033.34,859.38c-4.67-2.35-8.23-5.64-10.67-9.86-2.45-4.22-3.67-9.1-3.67-14.63,0-5.91,1.36-10.99,4.1-15.25,2.73-4.26,6.27-7.46,10.62-9.62,4.35-2.16,8.91-3.24,13.67-3.24,5.59,0,10.5,1.16,14.72,3.48,4.22,2.32,7.51,5.7,9.86,10.15,2.35,4.45,3.52,9.72,3.52,15.82,0,1.52-.09,3.02-.29,4.48h-38.11c.7,2.29,2.29,4.19,4.76,5.72,2.48,1.52,5.62,2.29,9.43,2.29,2.48,0,4.78-.43,6.91-1.29,2.13-.86,3.89-1.89,5.29-3.1l9.53,8.48c-2.22,2.8-5.34,5.18-9.34,7.15-4,1.97-8.61,2.95-13.82,2.95-6.35,0-11.86-1.17-16.53-3.52ZM1039.92,823.98c-1.87,1.81-2.88,4.02-3,6.62h20.49c-.19-2.67-1.14-4.89-2.86-6.67-1.72-1.78-4.13-2.67-7.24-2.67s-5.51.91-7.38,2.72Z"/>
        <path class="cls-3" d="M1132.58,861.86h-17.72v-37.26h-5.91v-15.82h6.1v-3.91c0-5.08,1.48-9.29,4.43-12.63,2.95-3.33,7.48-5,13.58-5,3.3,0,6.38.56,9.24,1.67,2.86,1.11,5.27,2.46,7.24,4.05l-6.86,10.29c-.57-.57-1.27-1.06-2.1-1.48-.83-.41-1.72-.62-2.67-.62-1.65,0-2.95.46-3.91,1.38-.95.92-1.43,2.3-1.43,4.15v2.1h11.81v15.82h-11.81v37.26Z"/>
        <path class="cls-3" d="M1209.85,807.83v54.02h-17.72v-7.43c-5.78,5.65-11.85,8.48-18.2,8.48-3.88,0-7.29-.92-10.24-2.76-2.95-1.84-5.26-4.53-6.91-8.05-1.65-3.52-2.48-7.73-2.48-12.62v-31.63h17.72v29.35c0,3.05.89,5.45,2.67,7.19,1.78,1.75,4.13,2.62,7.05,2.62s5.46-.9,7.43-2.72c1.97-1.81,2.95-4.18,2.95-7.1v-29.35h17.72Z"/>
        <path class="cls-3" d="M1247.77,810.16c2.99-1.94,6.83-2.91,11.53-2.91v18.58h-1.91c-11.56,0-17.34,5.27-17.34,15.82v20.2h-17.72v-54.02h17.72v9.72c2.16-2.99,4.73-5.45,7.72-7.38Z"/>
        <path class="cls-3" d="M1314.04,809.55c2.95,1.84,5.26,4.53,6.91,8.05,1.65,3.53,2.48,7.73,2.48,12.63v31.63h-17.72v-29.35c0-3.05-.89-5.45-2.67-7.19-1.78-1.75-4.13-2.62-7.05-2.62s-5.46.91-7.43,2.72c-1.97,1.81-2.95,4.18-2.95,7.1v29.35h-17.72v-54.02h17.72v7.43c5.78-5.65,11.85-8.48,18.2-8.48,3.87,0,7.29.92,10.24,2.76Z"/>
        <path class="cls-3" d="M1351.58,800.54c-1.87,1.81-4.15,2.72-6.81,2.72s-5.08-.91-7.05-2.72c-1.97-1.81-2.95-4.02-2.95-6.62s.98-4.64,2.95-6.48c1.97-1.84,4.32-2.76,7.05-2.76s4.86.91,6.76,2.72c1.91,1.81,2.86,3.99,2.86,6.53s-.94,4.81-2.81,6.62ZM1335.81,807.83h17.72v54.02h-17.72v-54.02Z"/>
        <path class="cls-3" d="M1387.36,841.85c0,2.29.6,3.92,1.81,4.91,1.21.99,2.73,1.48,4.57,1.48,1.59,0,3.18-.29,4.76-.86l2.38,13.24c-1.33.64-3.18,1.18-5.53,1.62-2.35.44-5.02.67-8,.67-5.65,0-10.04-1.29-13.15-3.86-3.11-2.57-4.67-6.37-4.67-11.39v-24.11h-5.72v-7.15l22.49-21.63h1.05v13.05h10.86v15.72h-10.86v18.29Z"/>
        <path class="cls-3" d="M1464.92,807.83v54.02h-17.72v-7.43c-5.78,5.65-11.85,8.48-18.2,8.48-3.88,0-7.29-.92-10.24-2.76-2.95-1.84-5.26-4.53-6.91-8.05-1.65-3.52-2.48-7.73-2.48-12.62v-31.63h17.72v29.35c0,3.05.89,5.45,2.67,7.19,1.78,1.75,4.13,2.62,7.05,2.62s5.46-.9,7.43-2.72c1.97-1.81,2.95-4.18,2.95-7.1v-29.35h17.72Z"/>
        <path class="cls-3" d="M1502.84,810.16c2.99-1.94,6.83-2.91,11.53-2.91v18.58h-1.91c-11.56,0-17.34,5.27-17.34,15.82v20.2h-17.72v-54.02h17.72v9.72c2.16-2.99,4.73-5.45,7.72-7.38Z"/>
        <path class="cls-3" d="M1534.14,859.38c-4.67-2.35-8.23-5.64-10.67-9.86-2.45-4.22-3.67-9.1-3.67-14.63,0-5.91,1.36-10.99,4.1-15.25,2.73-4.26,6.27-7.46,10.62-9.62,4.35-2.16,8.91-3.24,13.67-3.24,5.59,0,10.5,1.16,14.72,3.48,4.22,2.32,7.51,5.7,9.86,10.15,2.35,4.45,3.52,9.72,3.52,15.82,0,1.52-.09,3.02-.29,4.48h-38.11c.7,2.29,2.29,4.19,4.76,5.72,2.48,1.52,5.62,2.29,9.43,2.29,2.48,0,4.78-.43,6.91-1.29,2.13-.86,3.89-1.89,5.29-3.1l9.53,8.48c-2.22,2.8-5.34,5.18-9.34,7.15-4,1.97-8.61,2.95-13.82,2.95-6.35,0-11.86-1.17-16.53-3.52ZM1540.71,823.98c-1.87,1.81-2.88,4.02-3,6.62h20.49c-.19-2.67-1.14-4.89-2.86-6.67-1.72-1.78-4.13-2.67-7.24-2.67s-5.51.91-7.38,2.72Z"/>
      </g>
    </g>
  </g>
</svg>